PathFileType	4	(X/Y/Z)	/Users/itak/Documents/Research/Walk-IL/dataset/trc/00283_00010.trc
DataRate	CameraRate	NumFrames	NumMarkers	Units	OrigDataRate	OrigDataStartFrame	OrigNumFrames
100.000000	100.000000	4	54	mm	100.000000	321	642
Frame#	Time	RPSI			LPSI			L3			STRN			T10			C7			CLAV			RBAK			LBAK			LSHO			LUPA			LAEL			LAOL			LWTS			LWPS			LFRA			LIFD			LHPS			LHTS			RSHO			RUPA			RAEL			RAOL			RWTS			RWPS			RFRA			RIFD			RHTS			RHPS			RBHD			LFHD			RFHD			LBHD			LHIP			RASI			LASI			LKNE			LTHI			LANK			LTIP			LTOE			LMT1			LMT5			LHEE			RKNE			RANK			RTIP			RTOE			RMT1			RMT5			RHEE			RHIP			RTHI			*53			
		X1	Y1	Z1	X2	Y2	Z2	X3	Y3	Z3	X4	Y4	Z4	X5	Y5	Z5	X6	Y6	Z6	X7	Y7	Z7	X8	Y8	Z8	X9	Y9	Z9	X10	Y10	Z10	X11	Y11	Z11	X12	Y12	Z12	X13	Y13	Z13	X14	Y14	Z14	X15	Y15	Z15	X16	Y16	Z16	X17	Y17	Z17	X18	Y18	Z18	X19	Y19	Z19	X20	Y20	Z20	X21	Y21	Z21	X22	Y22	Z22	X23	Y23	Z23	X24	Y24	Z24	X25	Y25	Z25	X26	Y26	Z26	X27	Y27	Z27	X28	Y28	Z28	X29	Y29	Z29	X30	Y30	Z30	X31	Y31	Z31	X32	Y32	Z32	X33	Y33	Z33	X34	Y34	Z34	X35	Y35	Z35	X36	Y36	Z36	X37	Y37	Z37	X38	Y38	Z38	X39	Y39	Z39	X40	Y40	Z40	X41	Y41	Z41	X42	Y42	Z42	X43	Y43	Z43	X44	Y44	Z44	X45	Y45	Z45	X46	Y46	Z46	X47	Y47	Z47	X48	Y48	Z48	X49	Y49	Z49	X50	Y50	Z50	X51	Y51	Z51	X52	Y52	Z52	X53	Y53	Z53	X54	Y54	Z54	

322	3.21	516.26123046875	980.1468505859375	-414.97509765625	477.3008117675781	977.181396484375	-243.6605072021484	481.5258483886719	1053.53369140625	-336.217529296875	238.7858123779297	1226.962280273438	-357.6517944335938	501.5569152832031	1166.52587890625	-333.2870788574219	456.6878356933594	1407.33935546875	-297.0270385742188	299.5763854980469	1325.786010742188	-332.2584533691406	516.5838623046875	1281.901000976562	-382.0762023925781	463.6455078125	1358.359375	-197.8239440917969	368.0211181640625	1355.817626953125	-156.1908416748047	400.7613830566406	1236.926391601562	-92.27017974853516	421.6662902832031	1037.545654296875	-90.01931762695312	479.2080993652344	1031.162719726562	-154.3387908935547	341.8413696289062	818.2278442382812	-139.1208801269531	381.7386474609375	803.2655029296875	-80.12584686279297	412.6414184570312	933.5923461914062	-83.46160125732422	338.5075988769531	632.5404663085938	-155.129150390625	379.0935668945312	714.8659057617188	-90.15667724609375	321.680908203125	718.3382568359375	-125.8438415527344	405.7449645996094	1407.461181640625	-462.0331420898438	419.8587341308594	1356.893188476562	-533.858642578125	428.8004150390625	1101.519409179688	-620.0061645507812	451.8319702148438	1078.860473632812	-530.349853515625	283.7405700683594	900.8550415039062	-605.0353393554688	329.8359375	894.939453125	-676.1593017578125	398.0859375	1040.467407226562	-643.2909545898438	244.4202423095703	721.311767578125	-617.515625	233.2553100585938	795.45263671875	-632.05419921875	283.4419250488281	787.9825439453125	-681.8911743164062	413.8811340332031	1579.497436523438	-359.0712890625	255.5088195800781	1581.764770507812	-215.7073059082031	244.5637512207031	1593.50341796875	-308.208251953125	429.3169555664062	1550.15234375	-215.0844268798828	384.6803283691406	931.9506225585938	-165.9542541503906	308.4047546386719	935.6781616210938	-496.2631530761719	266.8404235839844	937.9140014648438	-247.6234588623047	255.5440368652344	476.9578552246094	-292.4237670898438	279.8301086425781	610.7887573242188	-236.8100738525391	333.8380737304688	43.93227386474609	-358.7247924804688	286.9118347167969	245.2715759277344	-320.8397216796875	149.4944152832031	36.40140533447266	-475.2319641113281	228.9790344238281	26.35562515258789	-491.1172790527344	210.9695281982422	41.51654052734375	-382.6322021484375	391.9966430664062	31.26242256164551	-404.097900390625	333.2529602050781	471.7074584960938	-562.7342529296875	699.1168823242188	223.5973052978516	-505.6388244628906	396.1800842285156	371.8101806640625	-548.819580078125	610.5079345703125	53.47343444824219	-445.6182861328125	628.8412475585938	110.1315994262695	-409.3144226074219	674.0933227539062	120.4379043579102	-517.1448364257812	713.2444458007812	272.7187805175781	-456.5913391113281	441.5723876953125	926.9295654296875	-537.2684936523438	367.0426940917969	725.857421875	-562.5843505859375	nan	nan	nan	
323	3.22	507.5694885253906	980.7086181640625	-417.4465026855469	471.0952453613281	977.6092529296875	-245.5175476074219	473.7798461914062	1054.446044921875	-337.833984375	230.4403381347656	1227.86962890625	-357.9799194335938	493.8074340820312	1167.793090820312	-335.2188415527344	448.5584716796875	1408.6875	-299.3598327636719	291.3731994628906	1326.750366210938	-333.3356628417969	508.2099304199219	1283.049926757812	-384.46337890625	456.3375244140625	1360.097778320312	-199.9756927490234	360.9454650878906	1357.267700195312	-157.8336639404297	393.0115356445312	1238.215209960938	-93.68215942382812	410.7794189453125	1038.373046875	-90.96200561523438	469.8623657226562	1031.454711914062	-154.0956268310547	327.4603271484375	821.4295043945312	-141.7625427246094	365.6913146972656	805.6026000976562	-82.00608825683594	399.6969299316406	934.9892578125	-84.905029296875	318.3629760742188	635.7086791992188	-156.4759826660156	360.3047180175781	717.3593139648438	-91.64676666259766	303.8094482421875	722.412353515625	-128.2137298583984	396.3962097167969	1407.996948242188	-464.11328125	410.1932983398438	1357.10009765625	-535.7413330078125	420.1210021972656	1101.3623046875	-620.00146484375	443.6340026855469	1079.423583984375	-530.3104248046875	281.719970703125	895.6639404296875	-604.2421875	327.351318359375	891.7683715820312	-675.7210693359375	390.6838989257812	1039.352416992188	-642.9926147460938	249.8266754150391	714.5585327148438	-616.493408203125	235.5014953613281	788.2317504882812	-630.8775024414062	285.2309875488281	782.9965209960938	-681.2498168945312	404.5826110839844	1580.741943359375	-360.8479309082031	247.7426910400391	1582.345336914062	-215.8738555908203	235.7972412109375	1594.227661132812	-308.2735595703125	421.6313171386719	1551.290405273438	-217.0941314697266	378.8572692871094	932.5571899414062	-166.5951080322266	298.3884582519531	936.8511962890625	-495.2465515136719	260.5087280273438	938.8466186523438	-246.1680145263672	253.2825927734375	476.5226440429688	-292.4521484375	276.0374145507812	610.7787475585938	-237.0549774169922	333.7030334472656	44.09408187866211	-358.9074096679688	285.9691162109375	245.1229095458984	-321.0284423828125	149.517333984375	36.36344528198242	-475.3253479003906	229.0000762939453	26.33804893493652	-491.1774291992188	210.9821166992188	41.6256103515625	-382.748291015625	392.1760559082031	31.41585350036621	-404.248046875	309.2620849609375	475.9564819335938	-564.4014892578125	672.7555541992188	221.6715240478516	-516.5056762695312	370.26904296875	374.8067626953125	-552.1123046875	576.9650268554688	55.74154663085938	-457.7183532714844	598.87451171875	110.1451568603516	-420.4216613769531	642.61962890625	120.3405838012695	-529.051025390625	689.5695190429688	269.8541564941406	-467.3582763671875	430.7289428710938	928.1128540039062	-538.6312255859375	351.8519287109375	728.8299560546875	-563.7055053710938	nan	nan	nan	
324	3.23	498.8849792480469	981.2180786132812	-419.9329833984375	464.9559631347656	977.9077758789062	-247.4327697753906	466.1086730957031	1055.31591796875	-339.4161376953125	222.1270904541016	1228.835693359375	-358.0982055664062	486.1002807617188	1169.0244140625	-337.0927429199219	440.5191040039062	1409.991088867188	-301.6685180664062	283.2555236816406	1327.786254882812	-334.2920837402344	499.866455078125	1284.144775390625	-386.7973937988281	449.1478881835938	1361.803955078125	-202.1092224121094	354.0212097167969	1358.760131835938	-159.4114685058594	385.3726501464844	1239.603149414062	-94.95841979980469	399.8055114746094	1039.335327148438	-91.57823944091797	460.5078735351562	1031.759399414062	-153.3818511962891	313.1611328125	824.7919311523438	-144.1629638671875	349.5847778320312	808.2006225585938	-83.53699493408203	386.5847473144531	936.591064453125	-86.02562713623047	298.5322875976562	639.2178955078125	-157.6621398925781	341.4524230957031	720.1895751953125	-92.85688781738281	286.0524291992188	726.76123046875	-130.4140777587891	387.1307983398438	1408.505615234375	-466.1455993652344	400.6336059570312	1357.284301757812	-537.5679321289062	411.9033203125	1101.151611328125	-619.814453125	435.5354309082031	1079.973022460938	-529.9920043945312	279.9537963867188	890.842529296875	-603.6629638671875	325.384765625	888.808837890625	-675.2788696289062	383.7854614257812	1038.287353515625	-642.5787963867188	255.0595245361328	708.5606689453125	-616.137451171875	237.8616027832031	781.6934814453125	-630.3125	287.3411865234375	778.5731201171875	-680.9287719726562	395.2832641601562	1581.990844726562	-362.6408996582031	239.9931945800781	1582.855224609375	-216.0703582763672	227.0323944091797	1594.858764648438	-308.3450012207031	413.9874572753906	1552.469360351562	-219.1188354492188	373.3580017089844	933.0430908203125	-167.2038421630859	288.458740234375	938.1088256835938	-494.1267700195312	254.2810974121094	939.7386474609375	-244.6555938720703	251.2174224853516	476.0549926757812	-292.4225158691406	272.5461120605469	610.7066040039062	-237.2857666015625	333.6461181640625	44.23984146118164	-359.0806884765625	285.1888732910156	244.9641723632812	-321.1850280761719	149.5355987548828	36.32717514038086	-475.4184875488281	229.0157623291016	26.32114601135254	-491.2474365234375	210.9889526367188	41.75449371337891	-382.8711853027344	392.3735656738281	31.62447547912598	-404.3633728027344	285.6279296875	480.4477233886719	-565.3202514648438	645.6611938476562	218.6048278808594	-527.4321899414062	344.5492553710938	377.8338623046875	-554.7638549804688	542.2587280273438	57.43167877197266	-469.8550415039062	567.810546875	109.2777328491211	-431.635009765625	609.9984130859375	119.4960861206055	-541.0286254882812	665.4442138671875	265.5755920410156	-478.1814270019531	419.8274230957031	929.363037109375	-539.9749145507812	336.4559020996094	731.9585571289062	-564.5038452148438	nan	nan	nan	
325	3.24	490.1871337890625	981.6720581054688	-422.4347534179688	458.8559875488281	978.1012573242188	-249.4110412597656	458.5065612792969	1056.1240234375	-340.9551696777344	213.8709564208984	1229.84423828125	-357.9975280761719	478.4144592285156	1170.203369140625	-338.8888854980469	432.5569763183594	1411.237182617188	-303.9375305175781	275.2218017578125	1328.87548828125	-335.1205749511719	491.5381774902344	1285.170532226562	-389.0566711425781	442.056884765625	1363.459716796875	-204.2089996337891	347.23095703125	1360.285278320312	-160.9130706787109	377.84228515625	1241.084716796875	-96.09288024902344	388.8115234375	1040.45166015625	-91.88617706298828	451.1462707519531	1032.085205078125	-152.2421875	298.9844970703125	828.3134765625	-146.3199310302734	333.4674072265625	811.0551147460938	-84.7364501953125	373.3562316894531	938.3986206054688	-86.82688903808594	279.0018005371094	643.06396484375	-158.7425994873047	322.5949096679688	723.343505859375	-93.82312774658203	268.4411315917969	731.3842163085938	-132.4716949462891	377.9456176757812	1408.983520507812	-468.1148681640625	391.1747741699219	1357.44873046875	-539.3303833007812	404.1204528808594	1100.89990234375	-619.4766845703125	427.5455627441406	1080.5166015625	-529.4395751953125	278.3633422851562	886.4132690429688	-603.3046264648438	323.9060363769531	886.0736694335938	-674.8303833007812	377.365966796875	1037.287719726562	-642.0822143554688	260.0051879882812	703.28271484375	-616.355224609375	240.2083129882812	775.8394165039062	-630.3109130859375	289.6992797851562	774.69775390625	-680.8759155273438	385.9949035644531	1583.225952148438	-364.4463806152344	232.2640686035156	1583.3037109375	-216.2940521240234	218.2847900390625	1595.40478515625	-308.4224853515625	406.387451171875	1553.666259765625	-221.154052734375	368.2990112304688	933.3989868164062	-167.7692565917969	278.6204223632812	939.4194946289062	-492.9536437988281	248.1378784179688	940.5833129882812	-243.1221923828125	249.3109741210938	475.5681457519531	-292.3220825195312	269.35546875	610.5787353515625	-237.4891967773438	333.6747741699219	44.3590202331543	-359.2414855957031	284.5140991210938	244.7959594726562	-321.3196105957031	149.5466461181641	36.29275512695312	-475.508544921875	229.0222930908203	26.30677795410156	-491.32666015625	210.9862518310547	41.89664077758789	-382.9949340820312	392.5712280273438	31.8809757232666	-404.430908203125	262.4480895996094	485.0975646972656	-565.4962158203125	617.7858276367188	214.4273986816406	-538.3890991210938	319.1146850585938	380.8456726074219	-556.784423828125	506.5596923828125	58.57646942138672	-481.806640625	535.7742919921875	107.6113052368164	-442.8305053710938	576.2981567382812	117.9687728881836	-552.9539184570312	640.7908935546875	259.9126281738281	-489.0802612304688	408.8821411132812	930.6465454101562	-541.2960205078125	320.8991394042969	735.205810546875	-564.9765625	nan	nan	nan	
